<?xml version="1.0" encoding="UTF-8"?>
<svg version="1.1" xmlns="http://www.w3.org/2000/svg" width="297" height="118">
<path d="M0 0 C4.88367882 0.0939169 9.18835332 1.49196362 13.1875 4.3125 C14.77897696 6.66446121 15.3881189 8.54131219 16.1875 11.3125 C16.5175 11.3125 16.8475 11.3125 17.1875 11.3125 C18.1775 8.3425 19.1675 5.3725 20.1875 2.3125 C25.42138613 1.19890721 29.03829734 1.5184174 34.171875 3.03515625 C36.50066558 3.582514 36.50066558 3.582514 39.1875 1.3125 C43.32361052 0.78580428 47.09722638 0.84170003 50.9375 2.5 C51.68 2.768125 52.4225 3.03625 53.1875 3.3125 C54.86958635 2.33866054 56.53488161 1.33554948 58.1875 0.3125 C62.27620582 -0.20788074 64.52786009 -0.01520301 68.23046875 1.82421875 C72.06327063 5.04944305 72.84277266 7.83396798 74.0625 12.5625 C74.27390625 13.30757812 74.4853125 14.05265625 74.703125 14.8203125 C75.217926 16.64551605 75.70550511 18.47836015 76.1875 20.3125 C78.62679746 18.38673885 80.98840595 16.51159405 83.1875 14.3125 C81.5375 13.3225 79.8875 12.3325 78.1875 11.3125 C78.66750141 6.99248734 79.80253409 5.03927809 83.1875 2.3125 C89.0212648 -0.92848045 95.1551584 -0.12671612 101.375 1.4375 C106.31886736 3.0423554 108.42153745 4.94049468 111.1875 9.3125 C112.65106479 13.90006534 112.44914404 18.60471126 112.5 23.375 C112.52900391 24.28572266 112.55800781 25.19644531 112.58789062 26.13476562 C112.59626953 27.00939453 112.60464844 27.88402344 112.61328125 28.78515625 C112.63515503 29.98023804 112.63515503 29.98023804 112.6574707 31.19946289 C112.1875 33.3125 112.1875 33.3125 110.46411133 35.06835938 C106.38527613 37.2973936 102.11315334 36.7832385 97.5625 36.75 C96.14130859 36.7799707 96.14130859 36.7799707 94.69140625 36.81054688 C87.76448026 36.8058089 82.41604702 35.30768083 76.1875 32.3125 C75.671875 32.951875 75.15625 33.59125 74.625 34.25 C71.39762859 36.98085273 69.39309816 37.24121868 65.1875 37.3125 C62.28109076 36.71395235 60.8062957 35.93615334 58.1875 34.3125 C56.22616573 29.53174772 57.47962617 23.9617109 58.03125 18.921875 C58.40461585 16.33016777 58.40461585 16.33016777 57.1875 14.3125 C56.5275 14.3125 55.8675 14.3125 55.1875 14.3125 C55.28289062 15.49328125 55.37828125 16.6740625 55.4765625 17.890625 C55.58913471 19.44787391 55.70108114 21.00516815 55.8125 22.5625 C55.87695312 23.33980469 55.94140625 24.11710937 56.0078125 24.91796875 C56.52172071 32.43387637 56.52172071 32.43387637 54.1875 35.3125 C49.00785362 36.73436371 45.16008732 36.26253424 40.1875 34.3125 C37.65974649 30.52086973 37.96306965 27.50375969 38.0625 23.125 C38.07152344 22.37541016 38.08054688 21.62582031 38.08984375 20.85351562 C38.11337422 19.00637346 38.14924439 17.15939588 38.1875 15.3125 C37.5275 15.3125 36.8675 15.3125 36.1875 15.3125 C36.435 16.3025 36.435 16.3025 36.6875 17.3125 C37.80231322 24.00137933 37.76131123 28.45144958 34.1875 34.3125 C32.45530072 36.04469928 30.16723192 35.52541761 27.8125 35.5625 C26.83539063 35.58828125 25.85828125 35.6140625 24.8515625 35.640625 C22.1875 35.3125 22.1875 35.3125 20.41015625 34.12109375 C18.85225294 31.8165914 18.4618371 29.86049668 18 27.125 C17.84144531 26.22394531 17.68289062 25.32289062 17.51953125 24.39453125 C17.40996094 23.70746094 17.30039063 23.02039063 17.1875 22.3125 C16.9915625 22.98796875 16.795625 23.6634375 16.59375 24.359375 C13.84156483 32.56847905 13.84156483 32.56847905 9.8125 34.9375 C3.39773528 37.46489323 -4.58502204 37.56248518 -11.1640625 35.6171875 C-16.11774392 33.10872755 -17.68149524 29.39705843 -19.5 24.4375 C-20.57028102 17.15958903 -19.80513852 11.57256287 -15.8125 5.3125 C-10.77353134 0.93078812 -6.44383934 0.52818355 0 0 Z M-2.8125 14.3125 C-2.8125 17.2825 -2.8125 20.2525 -2.8125 23.3125 C-2.1525 23.3125 -1.4925 23.3125 -0.8125 23.3125 C-1.1425 20.3425 -1.4725 17.3725 -1.8125 14.3125 C-2.1425 14.3125 -2.4725 14.3125 -2.8125 14.3125 Z " fill="#CC3238" transform="translate(82.8125,40.6875)"/>
<path d="M0 0 C4.56894259 -0.18594534 7.54822069 0.82502616 11.453125 3.16796875 C12.27613601 8.42101432 12.45231698 12.52613407 9.625 17.171875 C5.83630663 21.78228829 1.688788 25.96992265 -2.546875 30.16796875 C-1.70382813 30.28914063 -0.86078125 30.4103125 0.0078125 30.53515625 C1.10351562 30.70273437 2.19921875 30.8703125 3.328125 31.04296875 C4.41867188 31.20539062 5.50921875 31.3678125 6.6328125 31.53515625 C9.453125 32.16796875 9.453125 32.16796875 11.453125 34.16796875 C11.71875 36.26171875 11.71875 36.26171875 11.703125 38.66796875 C11.71085937 39.8590625 11.71085937 39.8590625 11.71875 41.07421875 C11.453125 43.16796875 11.453125 43.16796875 9.453125 45.16796875 C4.27428614 47.01259793 -1.60006502 46.43083971 -7.01904297 46.46313477 C-8.37103714 46.47469166 -9.72298438 46.49520217 -11.07470703 46.5246582 C-13.03385079 46.56731045 -14.99355915 46.58089715 -16.953125 46.59375 C-18.12166016 46.60833252 -19.29019531 46.62291504 -20.49414062 46.63793945 C-24.2213818 46.06412793 -25.33321589 45.17816922 -27.546875 42.16796875 C-28.90406092 38.7601923 -29.15845897 35.78376594 -28.546875 32.16796875 C-26.2428967 28.68289764 -23.30927558 26.19654484 -20.109375 23.54296875 C-19.29404297 22.82496094 -18.47871094 22.10695313 -17.63867188 21.3671875 C-15.63017091 19.60534455 -13.60155715 17.87548376 -11.546875 16.16796875 C-12.31773438 16.03519531 -13.08859375 15.90242188 -13.8828125 15.765625 C-14.88570312 15.58902344 -15.88859375 15.41242187 -16.921875 15.23046875 C-17.91960938 15.05644531 -18.91734375 14.88242187 -19.9453125 14.703125 C-22.546875 14.16796875 -22.546875 14.16796875 -24.546875 13.16796875 C-26.04457085 6.02511161 -26.04457085 6.02511161 -24.421875 3.23046875 C-17.60984166 -0.62968348 -7.6590526 0.50512157 0 0 Z " fill="#CC333A" transform="translate(47.546875,29.83203125)"/>
<path d="M0 0 C3.34649056 2.72761902 5.20466414 5.75903057 6 10 C6.26450209 13.35096791 6.27667555 16.70216668 6.3125 20.0625 C6.34150391 20.97322266 6.37050781 21.88394531 6.40039062 22.82226562 C6.40876953 23.69689453 6.41714844 24.57152344 6.42578125 25.47265625 C6.44036377 26.26937744 6.45494629 27.06609863 6.4699707 27.88696289 C6 30 6 30 4.27661133 31.75585938 C0.19777613 33.9848936 -4.07434666 33.4707385 -8.625 33.4375 C-10.04619141 33.4674707 -10.04619141 33.4674707 -11.49609375 33.49804688 C-18.42301974 33.4933089 -23.77145298 31.99518083 -30 29 C-30.515625 29.639375 -31.03125 30.27875 -31.5625 30.9375 C-34.72665594 33.61486272 -36.89924558 33.85354448 -41 34 C-42.32 33.34 -43.64 32.68 -45 32 C-40.545 31.505 -40.545 31.505 -36 31 C-35.67 29.68 -35.34 28.36 -35 27 C-34.34 27 -33.68 27 -33 27 C-33.0721875 26.38511719 -33.144375 25.77023438 -33.21875 25.13671875 C-33.3115625 24.32847656 -33.404375 23.52023438 -33.5 22.6875 C-33.5928125 21.88699219 -33.685625 21.08648437 -33.78125 20.26171875 C-34 18 -34 18 -34 15 C-34.15468841 12.93656705 -34.32265725 10.87410946 -34.5 8.8125 C-34.5928125 7.72582031 -34.685625 6.63914062 -34.78125 5.51953125 C-34.8534375 4.68808594 -34.925625 3.85664062 -35 3 C-32.99006295 6.01490557 -32.27376659 8.2149927 -31.375 11.6875 C-31.11460937 12.68136719 -30.85421875 13.67523438 -30.5859375 14.69921875 C-30.39257812 15.45847656 -30.19921875 16.21773437 -30 17 C-27.56070254 15.07423885 -25.19909405 13.19909405 -23 11 C-25.475 9.515 -25.475 9.515 -28 8 C-27.51999859 3.67998734 -26.38496591 1.72677809 -23 -1 C-15.87087849 -4.96062306 -7.10161577 -3.28236193 0 0 Z " fill="#CC2E35" transform="translate(189,44)"/>
<path d="M0 0 C3.97272488 3.65908871 5.36705289 7.75140777 6 13 C6.10277552 18.8810434 4.35917927 24.17257019 1 29 C-1.625 30.9375 -1.625 30.9375 -4 32 C-4.99 32.495 -4.99 32.495 -6 33 C-8.41249692 33.17603147 -10.83150895 33.26744968 -13.25 33.3125 C-14.55453125 33.34988281 -15.8590625 33.38726562 -17.203125 33.42578125 C-22.38753883 32.84440151 -25.28931905 30.85666904 -28.78515625 27.0625 C-31.75395503 22.02222426 -32.39909 16.47495368 -31.4765625 10.75390625 C-30.12586228 6.03799994 -28.96047827 1.97751559 -24.625 -0.6875 C-16.26542762 -3.71424172 -7.98600403 -4.31487799 0 0 Z M-14 12 C-15.35618499 13.12534105 -15.35618499 13.12534105 -15.0625 16.0625 C-15.041875 17.031875 -15.02125 18.00125 -15 19 C-14.01 19.495 -14.01 19.495 -13 20 C-13 17.36 -13 14.72 -13 12 C-13.33 12 -13.66 12 -14 12 Z " fill="#CB3238" transform="translate(262,44)"/>
<path d="M0 0 C2.0625 1.5625 2.0625 1.5625 3 4 C3.21844466 6.72015615 3.13697992 9.26040166 3 12 C3.928125 11.938125 4.85625 11.87625 5.8125 11.8125 C9 12 9 12 10.8125 13.25 C12.84989699 16.25247977 13.18261664 18.04126265 12.5 21.625 C11 24 11 24 7.375 25.3125 C6.26125 25.539375 5.1475 25.76625 4 26 C4 27.65 4 29.3 4 31 C5.11375 31.268125 6.2275 31.53625 7.375 31.8125 C11 33 11 33 13 36 C13.54275757 39.49620463 13.67520303 42.83715034 11.875 45.9375 C6.09540763 49.21260234 0.08414271 47.60822452 -5.984375 46.0703125 C-10.47321252 44.47712405 -11.83390747 43.25195941 -14 39 C-14.76201401 34.28680223 -13.92914578 29.64572888 -13 25 C-13.78375 24.87625 -14.5675 24.7525 -15.375 24.625 C-18 24 -18 24 -20 22 C-20.58369099 16.74678112 -20.58369099 16.74678112 -20 14 C-19.195625 13.525625 -18.39125 13.05125 -17.5625 12.5625 C-16.716875 12.046875 -15.87125 11.53125 -15 11 C-14.5652516 8.88386294 -14.5652516 8.88386294 -14.5 6.5 C-14.22222222 2.23611111 -14.22222222 2.23611111 -12 -0.125 C-7.78489275 -1.35440628 -4.22319035 -1.17175224 0 0 Z " fill="#CC3137" transform="translate(216,30)"/>
<path d="M0 0 C0 0.33 0 0.66 0 1 C-0.78246094 1.06058594 -1.56492188 1.12117188 -2.37109375 1.18359375 C-3.88896484 1.30927734 -3.88896484 1.30927734 -5.4375 1.4375 C-6.44683594 1.51871094 -7.45617187 1.59992187 -8.49609375 1.68359375 C-10.93640779 1.73211468 -10.93640779 1.73211468 -12 3 C-12.0315579 5.55619004 -11.93173369 8.09780341 -11.83984375 10.65234375 C-12 13 -12 13 -14 15 C-14.99 15 -15.98 15 -17 15 C-17 15.66 -17 16.32 -17 17 C-16.34 17.33 -15.68 17.66 -15 18 C-15.33 19.65 -15.66 21.3 -16 23 C-15.34 23 -14.68 23 -14 23 C-14 22.34 -14 21.68 -14 21 C-12.35 20.67 -10.7 20.34 -9 20 C-8.31292445 22.49064888 -8 24.37886292 -8 27 C-7.25827123 29.15017528 -7.25827123 29.15017528 -6 31 C-3.05015624 31.98328125 -0.64875709 32.26549471 2.4375 32.5 C9.14339653 33.01092545 9.14339653 33.01092545 12 34 C13.59333043 37.18666086 13.38375426 40.53199853 13 44 C11.875 45.9375 11.875 45.9375 10 47 C3.26508053 48.57439676 -2.55951047 47.28587323 -9 45 C-11.8510533 43.16392167 -12.38759892 42.1650836 -14 39 C-14.76201401 34.28680223 -13.92914578 29.64572888 -13 25 C-13.78375 24.87625 -14.5675 24.7525 -15.375 24.625 C-18 24 -18 24 -20 22 C-20.58369099 16.74678112 -20.58369099 16.74678112 -20 14 C-19.195625 13.525625 -18.39125 13.05125 -17.5625 12.5625 C-16.716875 12.046875 -15.87125 11.53125 -15 11 C-14.5652516 8.88386294 -14.5652516 8.88386294 -14.5 6.5 C-14.22222222 2.23611111 -14.22222222 2.23611111 -12 -0.125 C-7.8176664 -1.3448473 -4.23800669 -0.76634979 0 0 Z " fill="#CC2D34" transform="translate(216,30)"/>
<path d="M0 0 C1.1446875 0.1546875 1.1446875 0.1546875 2.3125 0.3125 C2.3125 0.9725 2.3125 1.6325 2.3125 2.3125 C2.6425 1.6525 2.9725 0.9925 3.3125 0.3125 C4.3025 0.3125 5.2925 0.3125 6.3125 0.3125 C6.3125 0.9725 6.3125 1.6325 6.3125 2.3125 C7.3025 2.6425 8.2925 2.9725 9.3125 3.3125 C9.65220765 5.81177769 9.98438032 8.31169595 10.3125 10.8125 C10.40789062 11.50859375 10.50328125 12.2046875 10.6015625 12.921875 C11.2286622 17.75950129 11.40039528 22.43431196 11.3125 27.3125 C10.6525 27.3125 9.9925 27.3125 9.3125 27.3125 C8.9825 28.9625 8.6525 30.6125 8.3125 32.3125 C6.52156809 32.39336147 4.72960372 32.45162702 2.9375 32.5 C1.44089844 32.55220703 1.44089844 32.55220703 -0.0859375 32.60546875 C-0.94445312 32.50878906 -1.80296875 32.41210938 -2.6875 32.3125 C-5.23885886 28.4854617 -4.66809373 25.739586 -4.25 21.375 C-3.56637443 15.27533809 -3.56637443 15.27533809 -4.6875 9.3125 C-6.3375 9.3125 -7.9875 9.3125 -9.6875 9.3125 C-9.3575 9.9725 -9.0275 10.6325 -8.6875 11.3125 C-8.64727609 13.6454866 -8.64429753 15.97956666 -8.6875 18.3125 C-10.1481285 15.66511084 -10.6875 14.41801666 -10.6875 11.3125 C-11.3475 10.9825 -12.0075 10.6525 -12.6875 10.3125 C-12.6875 8.97916667 -12.6875 7.64583333 -12.6875 6.3125 C-9.92473823 6.83518466 -7.3614124 7.42119587 -4.6875 8.3125 C-5.0175 7.3225 -5.3475 6.3325 -5.6875 5.3125 C-3.6408826 0.42335844 -3.6408826 0.42335844 0 0 Z " fill="#CA2930" transform="translate(144.6875,43.6875)"/>
<path d="M0 0 C0.78503906 0.07863281 1.57007813 0.15726563 2.37890625 0.23828125 C4.4375 0.6875 4.4375 0.6875 6.4375 2.6875 C7.57865743 6.681551 7.7436127 10.55497858 7.4375 14.6875 C5.60634793 17.30343153 4.52781634 17.65739455 1.4375 18.6875 C-6.08122659 19.09761236 -6.08122659 19.09761236 -9.5625 16.6875 C-10.78227329 14.24795342 -10.76403813 12.53444151 -10.8125 9.8125 C-10.83828125 8.94882813 -10.8640625 8.08515625 -10.890625 7.1953125 C-10.49572688 4.17716259 -9.65579196 2.8688276 -7.5625 0.6875 C-4.5419408 -0.31935307 -3.09173734 -0.34126261 0 0 Z " fill="#CC3339" transform="translate(279.5625,59.3125)"/>
<path d="M0 0 C0.80876659 2.82137094 1.10172353 5.25767031 1.02734375 8.1875 C1.01509766 8.96867187 1.00285156 9.74984375 0.99023438 10.5546875 C0.95507621 12.18498471 0.91601304 13.81520238 0.87304688 15.4453125 C0.86208984 16.22648437 0.85113281 17.00765625 0.83984375 17.8125 C0.82300537 18.52019531 0.80616699 19.22789063 0.78881836 19.95703125 C1.04185308 22.4048862 1.6545763 23.94239163 3 26 C3.99 26.33 4.98 26.66 6 27 C5.34 25.02 4.68 23.04 4 21 C7.6823315 19.15883425 12.13693527 21.15805 16 22 C16 18.37 16 14.74 16 11 C16.33 11 16.66 11 17 11 C18.44906024 16.79624096 18.86845416 21.92326179 16.5625 27.4375 C15 30 15 30 14 31 C12.2127943 31.15135944 10.41838124 31.22175778 8.625 31.25 C7.64789063 31.27578125 6.67078125 31.3015625 5.6640625 31.328125 C3 31 3 31 1.22265625 29.80859375 C-0.33524706 27.5040914 -0.7256629 25.54799668 -1.1875 22.8125 C-1.34605469 21.91144531 -1.50460938 21.01039062 -1.66796875 20.08203125 C-1.83232422 19.05142578 -1.83232422 19.05142578 -2 18 C-2.33 18 -2.66 18 -3 18 C-3.42765417 11.58518742 -1.85743168 6.11404596 0 0 Z " fill="#D0464D" transform="translate(102,45)"/>
<path d="M0 0 C3.93095192 1.27490333 5.98172348 2.34788059 8 6 C10.49053318 13.47159955 10.50781932 19.22628501 7.0625 26.375 C5.84571217 28.69753799 4.87799355 30.12200645 3 32 C2.01 31.67 1.02 31.34 0 31 C0 30.34 0 29.68 0 29 C0.99 28.67 1.98 28.34 3 28 C2.67 27.236875 2.34 26.47375 2 25.6875 C0.50765631 21.67682633 1.13943499 19.2241244 2.5 15.3125 C2.91765625 14.10013672 2.91765625 14.10013672 3.34375 12.86328125 C3.5603125 12.24839844 3.776875 11.63351563 4 11 C4.99 11.33 5.98 11.66 7 12 C6.65213292 10.02463255 6.65213292 10.02463255 6 8 C5.34 7.67 4.68 7.34 4 7 C3.29848848 5.6846659 2.63474075 4.34882408 2 3 C1.34 2.01 0.68 1.02 0 0 Z " fill="#CC2F37" transform="translate(258,43)"/>
<path d="M0 0 C0 0.33 0 0.66 0 1 C-0.78246094 1.06058594 -1.56492188 1.12117188 -2.37109375 1.18359375 C-3.88896484 1.30927734 -3.88896484 1.30927734 -5.4375 1.4375 C-6.44683594 1.51871094 -7.45617187 1.59992187 -8.49609375 1.68359375 C-10.93640779 1.73211468 -10.93640779 1.73211468 -12 3 C-12.0315579 5.55619004 -11.93173369 8.09780341 -11.83984375 10.65234375 C-12 13 -12 13 -14 15 C-14.99 15 -15.98 15 -17 15 C-17 15.66 -17 16.32 -17 17 C-16.34 17.33 -15.68 17.66 -15 18 C-15.33 19.65 -15.66 21.3 -16 23 C-14.35 23.33 -12.7 23.66 -11 24 C-11 26.64 -11 29.28 -11 32 C-11.66 32 -12.32 32 -13 32 C-13 34.31 -13 36.62 -13 39 C-13.33 39 -13.66 39 -14 39 C-14.08333357 34.1666528 -13.95261487 29.76307437 -13 25 C-13.78375 24.87625 -14.5675 24.7525 -15.375 24.625 C-18 24 -18 24 -20 22 C-20.58369099 16.74678112 -20.58369099 16.74678112 -20 14 C-19.195625 13.525625 -18.39125 13.05125 -17.5625 12.5625 C-16.716875 12.046875 -15.87125 11.53125 -15 11 C-14.5652516 8.88386294 -14.5652516 8.88386294 -14.5 6.5 C-14.22222222 2.23611111 -14.22222222 2.23611111 -12 -0.125 C-7.8176664 -1.3448473 -4.23800669 -0.76634979 0 0 Z " fill="#D47177" transform="translate(216,30)"/>
<path d="M0 0 C1.9965394 2.9948091 2.68557433 5.11448337 3.5625 8.5625 C4.51176356 12.382278 4.51176356 12.382278 6 16 C5.765625 18.49609375 5.765625 18.49609375 5.25 21.4375 C5.01023438 22.88962891 5.01023438 22.88962891 4.765625 24.37109375 C3.94746909 27.180374 3.33489208 28.28365929 1 30 C-3.85155613 31.14673145 -5.43601897 31.28199051 -10 29 C-7.03 28.67 -4.06 28.34 -1 28 C-0.67 26.68 -0.34 25.36 0 24 C0.66 24 1.32 24 2 24 C1.9278125 23.38511719 1.855625 22.77023438 1.78125 22.13671875 C1.6884375 21.32847656 1.595625 20.52023438 1.5 19.6875 C1.4071875 18.88699219 1.314375 18.08648437 1.21875 17.26171875 C1 15 1 15 1 12 C0.84531159 9.93656705 0.67734275 7.87410946 0.5 5.8125 C0.4071875 4.72582031 0.314375 3.63914063 0.21875 2.51953125 C0.1465625 1.68808594 0.074375 0.85664062 0 0 Z " fill="#DD8285" transform="translate(154,47)"/>
<path d="M0 0 C0.33 0 0.66 0 1 0 C1.11608726 3.27053517 1.18720711 6.5405418 1.25 9.8125 C1.30027344 11.2056543 1.30027344 11.2056543 1.3515625 12.62695312 C1.36445313 13.51962891 1.37734375 14.41230469 1.390625 15.33203125 C1.41157227 16.15421143 1.43251953 16.9763916 1.45410156 17.82348633 C1 20 1 20 -0.71240234 21.76904297 C-3.36478017 23.19628833 -4.99386521 23.37364347 -7.9921875 23.36328125 C-9.42111328 23.36231445 -9.42111328 23.36231445 -10.87890625 23.36132812 C-11.86761719 23.34521484 -12.85632813 23.32910156 -13.875 23.3125 C-14.85597656 23.31572266 -15.83695313 23.31894531 -16.84765625 23.32226562 C-21.94751757 23.2844124 -26.23145143 23.02865371 -31 21 C-29 19 -29 19 -26.375 18.875 C-25.59125 18.91625 -24.8075 18.9575 -24 19 C-24 19.66 -24 20.32 -24 21 C-20.72924117 21.0580476 -17.45861476 21.09361165 -14.1875 21.125 C-12.7943457 21.15013672 -12.7943457 21.15013672 -11.37304688 21.17578125 C-10.48037109 21.18222656 -9.58769531 21.18867187 -8.66796875 21.1953125 C-7.84578857 21.20578613 -7.0236084 21.21625977 -6.17651367 21.22705078 C-3.70578408 21.13996135 -3.70578408 21.13996135 -1 19 C-0.49378487 16.97723319 -0.49378487 16.97723319 -0.48828125 14.6484375 C-0.45283203 13.79765625 -0.41738281 12.946875 -0.38085938 12.0703125 C-0.35830078 11.18085937 -0.33574219 10.29140625 -0.3125 9.375 C-0.27833984 8.4778125 -0.24417969 7.580625 -0.20898438 6.65625 C-0.12637598 4.43762462 -0.05727281 2.2194006 0 0 Z " fill="#DC9B9F" transform="translate(194,54)"/>
<path d="M0 0 C0.66 0 1.32 0 2 0 C2 0.99 2 1.98 2 3 C2.66 3 3.32 3 4 3 C4.66 5.31 5.32 7.62 6 10 C8.97 10.33 11.94 10.66 15 11 C14.67 11.66 14.34 12.32 14 13 C12.041036 12.69147815 10.08284287 12.3780582 8.125 12.0625 C6.48917969 11.80146484 6.48917969 11.80146484 4.8203125 11.53515625 C2 11 2 11 0 10 C-1.29411765 2.58823529 -1.29411765 2.58823529 0 0 Z " fill="#CB5F63" transform="translate(23,33)"/>
<path d="M0 0 C0.9821994 3.27626375 1.11580914 6.22788119 1.09765625 9.640625 C1.09282227 11.24550781 1.09282227 11.24550781 1.08789062 12.8828125 C1.07951172 13.99398437 1.07113281 15.10515625 1.0625 16.25 C1.05798828 17.37664063 1.05347656 18.50328125 1.04882812 19.6640625 C1.03705397 22.44276217 1.0206084 25.22135409 1 28 C0.67 28 0.34 28 0 28 C-0.66 24.7 -1.32 21.4 -2 18 C-2.33 18 -2.66 18 -3 18 C-3.42765417 11.58518742 -1.85743168 6.11404596 0 0 Z " fill="#E4A8AB" transform="translate(102,45)"/>
<path d="M0 0 C1 1 1 1 1.0625 3.5625 C1.041875 4.366875 1.02125 5.17125 1 6 C-1.64 6 -4.28 6 -7 6 C-7.33 4.02 -7.66 2.04 -8 0 C-5.11795733 -1.44102133 -3.08226581 -0.65580124 0 0 Z " fill="#C72228" transform="translate(226,44)"/>
<path d="M0 0 C0.33 0 0.66 0 1 0 C1 2.97 1 5.94 1 9 C3.31 9.33 5.62 9.66 8 10 C8 10.33 8 10.66 8 11 C10.31 11.33 12.62 11.66 15 12 C11.29873141 14.46751239 9.37776468 14.30721156 5 14 C2.23857335 12.98263229 1.31914629 12.63829259 0 10 C-0.06996014 8.29297265 -0.08440154 6.58331997 -0.0625 4.875 C-0.05347656 3.96492188 -0.04445313 3.05484375 -0.03515625 2.1171875 C-0.02355469 1.41851562 -0.01195312 0.71984375 0 0 Z " fill="#E19497" transform="translate(269,64)"/>
<path d="M0 0 C1 3 1 3 0.5 5.4375 C-0.01333512 8.06834251 0.16441342 9.49324027 1 12 C-0.875 11.75 -0.875 11.75 -3 11 C-5.35535899 7.82026536 -5.17494335 4.84875379 -5 1 C-4.67 1.66 -4.34 2.32 -4 3 C-3.01 3 -2.02 3 -1 3 C-0.67 2.01 -0.34 1.02 0 0 Z " fill="#C32528" transform="translate(107,60)"/>
<path d="M0 0 C2.31 0 4.62 0 7 0 C7.20140476 3.62528568 6.85776765 5.86501708 5 9 C4.01 8.67 3.02 8.34 2 8 C2 6.35 2 4.7 2 3 C1.34 3 0.68 3 0 3 C0 2.01 0 1.02 0 0 Z " fill="#C82128" transform="translate(25,33)"/>
<path d="M0 0 C4.31612591 0.43161259 6.37088082 1.73763869 9.75 4.375 C9.42 5.035 9.09 5.695 8.75 6.375 C8.09 6.045 7.43 5.715 6.75 5.375 C6.75 4.715 6.75 4.055 6.75 3.375 C4.275 4.86 4.275 4.86 1.75 6.375 C1.42 5.715 1.09 5.055 0.75 4.375 C-1.22888961 3.64806096 -3.22954558 2.97683749 -5.25 2.375 C-3.25 0.375 -3.25 0.375 0 0 Z " fill="#D7757A" transform="translate(144.25,40.625)"/>
<path d="M0 0 C1.98 0.495 1.98 0.495 4 1 C4.33 3.31 4.66 5.62 5 8 C4.34 8 3.68 8 3 8 C3 8.66 3 9.32 3 10 C1.68 9.34 0.36 8.68 -1 8 C-0.67 5.36 -0.34 2.72 0 0 Z " fill="#CB2125" transform="translate(52,35)"/>
<path d="M0 0 C0.99 0.33 1.98 0.66 3 1 C3.63019694 11.15317287 3.63019694 11.15317287 1 14.6875 C0.34 15.120625 -0.32 15.55375 -1 16 C-1 14.35 -1 12.7 -1 11 C-0.34 11 0.32 11 1 11 C0.67 7.37 0.34 3.74 0 0 Z " fill="#D78388" transform="translate(56,32)"/>
<path d="M0 0 C3.93095192 1.27490333 5.98172348 2.34788059 8 6 C9.44825091 10.31759801 10.28600024 14.42399622 10 19 C8.56149468 16.4312405 7.78001273 14.18879696 7 11.3125 C6.67 10.219375 6.34 9.12625 6 8 C5.34 7.67 4.68 7.34 4 7 C3.29848848 5.6846659 2.63474075 4.34882408 2 3 C1.34 2.01 0.68 1.02 0 0 Z " fill="#DC9498" transform="translate(258,43)"/>
<path d="M0 0 C1.125 1.6875 1.125 1.6875 2 4 C1.375 6.6875 1.375 6.6875 0 9 C-1.9375 9.9375 -1.9375 9.9375 -4 10 C-4.99 9.34 -5.98 8.68 -7 8 C-7 7.34 -7 6.68 -7 6 C-6.01 6 -5.02 6 -4 6 C-4 5.34 -4 4.68 -4 4 C-2.68 4.33 -1.36 4.66 0 5 C0 3.35 0 1.7 0 0 Z " fill="#D6686B" transform="translate(227,45)"/>
<path d="M0 0 C0.33 0.66 0.66 1.32 1 2 C-6.24096313 6.63421641 -12.55666209 6.42691034 -21 6 C-21 5.67 -21 5.34 -21 5 C-15.06 4.505 -15.06 4.505 -9 4 C-9 3.67 -9 3.34 -9 3 C-7.35 3 -5.7 3 -4 3 C-4 2.34 -4 1.68 -4 1 C-2.68 0.67 -1.36 0.34 0 0 Z " fill="#DB9499" transform="translate(95,71)"/>
<path d="M0 0 C0.80824219 0.10183594 1.61648438 0.20367187 2.44921875 0.30859375 C3.06410156 0.39238281 3.67898438 0.47617187 4.3125 0.5625 C1.51753934 3.35746066 -0.82345584 3.22354876 -4.6875 3.5625 C-5.6775 3.2325 -6.6675 2.9025 -7.6875 2.5625 C-7.6875 3.2225 -7.6875 3.8825 -7.6875 4.5625 C-8.3475 4.5625 -9.0075 4.5625 -9.6875 4.5625 C-8.875 2.625 -8.875 2.625 -7.6875 0.5625 C-4.59271121 -0.46909626 -3.16118607 -0.41232862 0 0 Z " fill="#D97B82" transform="translate(279.6875,59.4375)"/>
<path d="M0 0 C4.62 0 9.24 0 14 0 C14.33 0.99 14.66 1.98 15 3 C12.87561661 3.08078641 10.7503677 3.13909141 8.625 3.1875 C7.44164063 3.22230469 6.25828125 3.25710937 5.0390625 3.29296875 C3.53472656 3.14794922 3.53472656 3.14794922 2 3 C1.34 2.01 0.68 1.02 0 0 Z " fill="#C7212C" transform="translate(75,43)"/>
<path d="M0 0 C0 3 0 3 -1.49609375 4.82421875 C-2.13675781 5.43910156 -2.77742188 6.05398437 -3.4375 6.6875 C-4.07558594 7.31011719 -4.71367188 7.93273438 -5.37109375 8.57421875 C-7 10 -7 10 -8 10 C-8 8.35 -8 6.7 -8 5 C-7.34 4.67 -6.68 4.34 -6 4 C-5.34 4.33 -4.68 4.66 -4 5 C-4.33 3.68 -4.66 2.36 -5 1 C-3.35 0.67 -1.7 0.34 0 0 Z " fill="#D66E73" transform="translate(52,50)"/>
<path d="M0 0 C1.4606285 2.64738916 2 3.89448334 2 7 C0.68 7.33 -0.64 7.66 -2 8 C-1.67 6.68 -1.34 5.36 -1 4 C-3.97 4 -6.94 4 -10 4 C-10 3.67 -10 3.34 -10 3 C-9.04287109 2.80083984 -9.04287109 2.80083984 -8.06640625 2.59765625 C-7.24011719 2.42105469 -6.41382813 2.24445312 -5.5625 2.0625 C-4.73878906 1.88847656 -3.91507813 1.71445312 -3.06640625 1.53515625 C-1.02338796 1.19247006 -1.02338796 1.19247006 0 0 Z " fill="#C82632" transform="translate(39,40)"/>
<path d="M0 0 C1.65 0 3.3 0 5 0 C4.67 0.99 4.34 1.98 4 3 C4.66 3 5.32 3 6 3 C6 3.66 6 4.32 6 5 C7.65 5.33 9.3 5.66 11 6 C9.3125 6.6875 9.3125 6.6875 7 7 C3.30194812 5.32707177 1.44626119 3.81287042 0 0 Z " fill="#D88184" transform="translate(203,69)"/>
<path d="M0 0 C2.125 0.375 2.125 0.375 4 1 C3.34 2.32 2.68 3.64 2 5 C1.34 5 0.68 5 0 5 C-0.33 5.66 -0.66 6.32 -1 7 C-1.66 7 -2.32 7 -3 7 C-2.25 2.25 -2.25 2.25 0 0 Z " fill="#CC2028" transform="translate(207,31)"/>
<path d="M0 0 C1.32 0 2.64 0 4 0 C2.92598892 2.91517292 2.22189824 4.77810176 0 7 C-0.99 6.67 -1.98 6.34 -3 6 C-3 5.34 -3 4.68 -3 4 C-2.01 3.67 -1.02 3.34 0 3 C0 2.01 0 1.02 0 0 Z " fill="#D87175" transform="translate(261,68)"/>
<path d="M0 0 C-0.66 1.98 -1.32 3.96 -2 6 C-4.46800047 4.84826645 -6.04783565 3.95216435 -8 2 C-4.77208445 -0.1519437 -3.71599191 -0.20086443 0 0 Z " fill="#CB4047" transform="translate(142,43)"/>
<path d="M0 0 C2.5625 2.25 2.5625 2.25 5 5 C4.8125 7.3125 4.8125 7.3125 4 9 C3.34 8.34 2.68 7.68 2 7 C1.67 7 1.34 7 1 7 C0.67 4.69 0.34 2.38 0 0 Z " fill="#CF7679" transform="translate(189,45)"/>
<path d="M0 0 C2.64 0 5.28 0 8 0 C7.625 1.9375 7.625 1.9375 7 4 C6.01 4.495 6.01 4.495 5 5 C4.67 4.01 4.34 3.02 4 2 C2.68 2 1.36 2 0 2 C0 1.34 0 0.68 0 0 Z " fill="#CD2029" transform="translate(123,44)"/>
<path d="M0 0 C0.91007812 0.10183594 1.82015625 0.20367187 2.7578125 0.30859375 C3.45648438 0.39238281 4.15515625 0.47617187 4.875 0.5625 C4.875 0.8925 4.875 1.2225 4.875 1.5625 C-1.065 2.0575 -1.065 2.0575 -7.125 2.5625 C-7.125 1.9025 -7.125 1.2425 -7.125 0.5625 C-4.50184968 -0.74907516 -2.89466564 -0.33399988 0 0 Z " fill="#DB8E93" transform="translate(110.125,42.4375)"/>
<path d="M0 0 C0 3.99904969 -1.72586967 5.80200422 -4 9 C-4.99 8.34 -5.98 7.68 -7 7 C-4.69 4.69 -2.38 2.38 0 0 Z " fill="#D78084" transform="translate(36,46)"/>
<path d="M0 0 C0.66 0.33 1.32 0.66 2 1 C2 3.31 2 5.62 2 8 C0 7 0 7 -1.125 3.9375 C-1.41375 2.968125 -1.7025 1.99875 -2 1 C-1.34 0.67 -0.68 0.34 0 0 Z " fill="#CB2225" transform="translate(260,45)"/>
<path d="M0 0 C0.33 0 0.66 0 1 0 C1.33 2.97 1.66 5.94 2 9 C-2.75 10.125 -2.75 10.125 -5 9 C-4.0409375 8.7215625 -4.0409375 8.7215625 -3.0625 8.4375 C-0.57873787 7.05753944 -0.57873787 7.05753944 -0.25 3.375 C-0.1675 2.26125 -0.085 1.1475 0 0 Z " fill="#D2787D" transform="translate(202,34)"/>
</svg>
